<svg width="61" height="52" viewBox="0 0 61 52" fill="none" xmlns="http://www.w3.org/2000/svg">
<path d="M29.6189 0C29.6189 0 58.6614 21.8227 60.6071 30.3053C62.0482 36.7056 57.8683 42.566 57.8683 42.566C57.8683 42.566 55.6345 25.9094 0 51.2023C5.62096 44.4932 8.71971 35.8571 7.85506 26.6034C7.49472 22.825 6.63008 19.201 5.11631 15.9622L18.1604 23.2875C18.1604 23.5187 18.1604 23.7502 18.2328 23.9812C18.737 29.6111 18.3768 35.1627 17.152 40.2521C19.8185 34.2377 21.1156 27.3744 20.4669 20.2801C20.1064 15.9621 19.0977 11.875 17.5122 8.17391L31.4211 18.1209C31.4928 18.5836 31.4928 19.1236 31.5651 19.5862C32.1414 25.8328 31.5651 31.9245 30.0516 37.4762C33.2945 30.9993 34.9522 23.4419 34.2314 15.6536C33.7264 9.94735 32.1407 4.70359 29.6189 0Z" fill="#231F20"/>
</svg>
